<?xml version="1.0" standalone="no"?>
<!DOCTYPE svg PUBLIC "-//W3C//DTD SVG 20010904//EN"
 "http://www.w3.org/TR/2001/REC-SVG-20010904/DTD/svg10.dtd">
<svg version="1.0" xmlns="http://www.w3.org/2000/svg"
 width="1080.000000pt" height="1080.000000pt" viewBox="0 0 1080.000000 1080.000000"
 preserveAspectRatio="xMidYMid meet">

<g transform="translate(0.000000,1080.000000) scale(0.100000,-0.100000)"
fill="#000000" stroke="none">
<path d="M3310 7640 c0 -543 -3 -740 -11 -740 -6 0 -64 29 -128 64 -179 98
-526 270 -733 362 -103 46 -189 84 -191 84 -2 0 -1 -288 1 -640 3 -396 1 -640
-5 -640 -5 0 -49 14 -99 30 -300 103 -727 202 -1069 249 -152 21 -428 52 -431
48 -2 -2 1768 -2213 1786 -2231 9 -8 11 185 8 811 -3 819 -3 823 17 817 104
-32 710 -315 823 -384 l32 -20 0 -721 0 -721 64 -82 c275 -352 808 -879 1521
-1507 184 -161 477 -409 485 -409 13 0 374 307 670 570 405 360 847 790 1085
1055 115 128 271 321 309 383 l27 43 -7 670 -7 669 244 119 c239 116 544 251
567 251 9 0 12 -187 14 -780 l3 -780 910 1111 c501 610 917 1119 925 1131 14
20 13 20 -30 13 -492 -79 -933 -186 -1383 -336 -131 -43 -240 -79 -243 -79 -2
0 -4 310 -4 689 l0 690 -224 -104 c-124 -56 -349 -166 -502 -244 -152 -78
-278 -141 -280 -141 -2 0 -4 91 -4 203 0 111 -3 434 -7 719 l-6 516 -81 -50
c-632 -396 -1359 -960 -1879 -1458 l-127 -121 -29 23 c-16 13 -82 73 -147 133
-358 333 -825 719 -1289 1067 -240 179 -558 408 -569 408 -3 0 -6 -333 -6
-740z m3950 -207 l-1 -608 -161 -95 c-228 -134 -630 -404 -848 -568 l-185
-140 -174 181 c-96 100 -227 234 -292 297 -66 64 -119 118 -119 122 0 9 325
310 490 453 171 149 480 397 680 546 197 147 588 419 603 419 4 0 7 -273 7
-607z m-3523 422 c358 -268 631 -486 943 -753 184 -158 530 -471 530 -480 0
-4 -65 -75 -144 -158 -78 -84 -198 -214 -266 -290 -67 -77 -130 -147 -140
-157 -16 -18 -23 -14 -161 91 -276 209 -638 454 -911 616 l-98 58 0 624 c0
343 3 624 6 624 3 0 111 -79 241 -175z m4541 -1297 l-3 -581 -235 -101 c-129
-56 -311 -139 -404 -184 -93 -45 -170 -81 -172 -80 -1 2 -5 253 -9 558 l-7
555 163 87 c173 92 649 328 662 328 4 0 6 -262 5 -582z m-5513 410 c121 -60
293 -150 383 -200 l162 -89 0 -505 c0 -277 -2 -504 -5 -504 -3 0 -101 47 -218
104 -184 91 -399 186 -599 265 l-58 23 0 534 0 533 57 -25 c32 -14 157 -75
278 -136z m4493 -914 l-3 -556 -165 -94 c-91 -53 -204 -120 -253 -150 -48 -30
-89 -54 -91 -54 -3 0 -48 56 -101 125 -91 118 -298 370 -407 496 -26 30 -48
58 -48 62 0 20 520 389 785 556 244 154 269 170 278 170 4 1 6 -249 5 -555z
m-3532 369 c280 -179 793 -544 794 -565 0 -4 -63 -87 -139 -183 -77 -96 -184
-236 -238 -310 -54 -74 -102 -134 -107 -135 -5 0 -64 35 -130 78 -67 44 -187
118 -268 167 l-148 88 0 504 0 505 38 -23 c20 -13 110 -69 198 -126z m1860
-166 c126 -129 252 -261 281 -294 l52 -59 -148 -126 c-127 -110 -198 -174
-382 -346 l-37 -34 -173 154 c-96 84 -222 193 -282 241 -74 62 -105 93 -100
102 26 44 537 595 553 595 4 0 111 -105 236 -233z m-4027 -123 c221 -51 662
-182 682 -203 4 -3 9 -274 13 -601 6 -587 6 -594 -13 -575 -31 32 -1171 1459
-1171 1466 0 9 310 -46 489 -87z m8111 61 c0 -4 -1046 -1285 -1187 -1454 l-22
-26 -1 567 0 567 58 21 c252 95 598 200 882 269 277 67 270 66 270 56z m-3572
-488 c24 -29 97 -115 161 -192 130 -155 334 -415 329 -419 -2 -2 -46 -32 -98
-66 -52 -35 -175 -122 -273 -193 l-178 -129 -272 277 c-150 153 -273 281 -275
285 -6 16 529 491 552 489 6 0 31 -24 54 -52z m-1277 -88 c79 -66 202 -172
272 -236 l128 -115 -98 -102 c-86 -89 -294 -316 -380 -415 l-30 -34 -99 80
c-97 78 -298 230 -381 289 -24 16 -43 31 -43 34 0 17 467 620 480 620 3 0 71
-54 151 -121z m-1055 -438 c71 -46 137 -88 147 -96 16 -11 6 -30 -121 -221
-76 -115 -171 -263 -212 -329 -40 -66 -77 -124 -82 -130 -4 -5 -8 206 -8 468
l0 477 73 -44 c41 -24 132 -80 203 -125z m3492 -528 l-3 -218 -44 75 c-25 41
-114 178 -198 304 -84 126 -153 232 -153 235 0 4 75 51 168 105 92 55 181 107
197 117 l30 18 3 -209 c1 -115 1 -307 0 -427z m-1565 149 c108 -114 197 -209
196 -212 0 -3 -48 -44 -107 -92 -59 -47 -158 -133 -221 -190 -62 -56 -133
-120 -158 -141 l-43 -39 -147 142 c-80 78 -193 183 -250 233 -56 50 -103 94
-103 98 0 10 240 277 376 418 l116 121 72 -66 c39 -36 160 -158 269 -272z
m-1388 3 c174 -131 284 -219 284 -227 1 -4 -45 -65 -102 -135 -163 -201 -337
-430 -337 -441 0 -6 203 -199 452 -429 249 -230 526 -487 617 -571 91 -84 168
-151 172 -150 14 6 1219 1151 1219 1159 0 10 -201 263 -330 414 -51 61 -99
117 -107 126 -12 15 0 27 116 113 71 53 193 139 270 191 l140 95 99 -142 c158
-228 373 -576 433 -700 l22 -46 -54 -69 c-227 -286 -681 -746 -1199 -1213
-198 -178 -609 -530 -620 -530 -17 0 -598 509 -900 790 -217 201 -566 547
-705 700 -134 147 -265 301 -265 312 0 23 321 547 482 786 l90 132 51 -37 c29
-20 106 -78 172 -128z m612 -508 c79 -71 210 -198 292 -284 l150 -155 63 68
c75 80 307 291 471 428 98 82 120 96 132 86 17 -14 326 -384 336 -403 5 -8
-167 -178 -483 -475 -487 -461 -490 -464 -511 -445 -17 14 -301 276 -966 889
-17 15 -23 7 188 271 142 179 145 182 165 165 12 -9 85 -75 163 -145z"/>
</g>
</svg>
