<?xml version="1.0" standalone="no"?>
<!DOCTYPE svg PUBLIC "-//W3C//DTD SVG 20010904//EN"
 "http://www.w3.org/TR/2001/REC-SVG-20010904/DTD/svg10.dtd">
<svg version="1.0" xmlns="http://www.w3.org/2000/svg"
 width="938.000000pt" height="563.000000pt" viewBox="0 0 938.000000 563.000000"
 preserveAspectRatio="xMidYMid meet">

<g transform="translate(0.000000,563.000000) scale(0.100000,-0.100000)"
fill="#000000" stroke="none">
<path d="M702 3875 c-67 -87 -92 -218 -58 -300 14 -33 13 -37 -29 -118 l-43
-84 -12 80 c-12 82 -45 187 -59 187 -17 0 -46 -117 -45 -185 0 -55 6 -81 26
-121 15 -27 33 -56 41 -62 12 -11 12 -20 1 -70 -8 -31 -14 -72 -14 -89 0 -46
-13 -41 -32 12 -19 52 -77 142 -109 171 l-21 19 4 -95 c3 -84 8 -103 34 -150
17 -30 49 -68 71 -85 37 -28 41 -35 48 -90 4 -33 11 -78 15 -100 8 -37 7 -38
-6 -20 -45 62 -187 185 -200 173 -6 -7 25 -108 46 -148 27 -52 88 -106 153
-134 31 -14 57 -31 57 -38 0 -7 15 -43 33 -80 18 -38 32 -68 31 -68 -1 0 -26
16 -55 35 -52 34 -170 80 -189 73 -15 -5 53 -100 101 -141 47 -41 114 -67 171
-67 34 0 45 -7 102 -67 35 -38 63 -69 61 -71 -1 -1 -14 2 -29 8 -40 15 -193
30 -217 21 -20 -7 -19 -9 17 -41 80 -70 192 -102 281 -81 49 12 50 12 120 -32
l71 -43 -97 -16 c-111 -18 -159 -34 -145 -48 23 -23 126 -50 192 -50 57 0 80
5 128 30 l58 29 85 -21 85 -21 -35 -12 c-49 -17 -128 -59 -168 -89 -45 -33
-29 -40 87 -34 72 3 97 9 136 31 27 15 51 26 53 23 5 -5 -75 -106 -85 -106 -4
0 -16 -7 -26 -15 -19 -15 -19 -15 4 -40 13 -14 29 -25 36 -25 15 0 78 70 97
107 8 15 22 52 32 81 l17 54 22 -64 c26 -74 68 -140 103 -164 24 -15 26 -15
51 9 l25 26 -49 44 c-27 25 -58 60 -68 78 l-19 33 31 -22 c17 -12 50 -29 73
-37 46 -17 194 -20 204 -6 10 17 -94 82 -177 111 l-48 17 90 22 c89 22 91 22
118 3 45 -32 99 -44 175 -40 86 5 191 45 162 61 -28 16 -111 35 -182 43 l-66
7 29 14 c16 9 50 29 77 45 44 28 50 30 92 19 62 -16 98 -14 161 9 62 21 167
97 158 112 -8 13 -150 1 -212 -18 -26 -7 -48 -14 -50 -14 -2 0 25 31 59 70 57
63 67 70 101 70 65 0 139 35 194 92 55 58 89 106 80 116 -15 14 -145 -39 -232
-95 -20 -12 -19 -10 6 40 15 29 32 68 38 85 6 18 19 35 29 38 82 26 150 81
186 150 18 36 48 136 43 142 -12 12 -140 -95 -188 -158 l-27 -34 9 39 c4 22
11 67 15 100 7 55 10 62 48 90 65 48 100 126 105 236 3 49 1 89 -3 89 -18 0
-112 -141 -127 -192 -14 -48 -28 -49 -29 0 0 20 -6 60 -13 87 -11 48 -10 52
21 97 57 86 64 195 18 304 -13 31 -18 36 -26 24 -17 -27 -47 -134 -54 -196
l-7 -62 -43 85 c-43 83 -43 85 -28 121 24 57 14 164 -20 232 -27 52 -70 110
-82 110 -11 0 -4 -178 9 -230 8 -30 13 -56 12 -58 -5 -4 -81 93 -96 123 -23
46 -96 114 -147 137 -25 11 -73 22 -107 25 l-61 4 78 -75 c56 -54 101 -86 163
-118 59 -30 98 -57 121 -85 l34 -42 -37 20 c-24 12 -59 19 -92 19 -58 0 -132
-18 -132 -31 0 -29 186 -88 277 -89 l43 0 40 -80 c22 -44 40 -83 40 -87 0 -4
-12 5 -27 20 -41 38 -94 57 -165 57 l-62 0 35 -36 c47 -50 138 -108 193 -124
25 -7 50 -18 55 -24 10 -12 31 -116 31 -155 0 -26 0 -26 -19 5 -26 43 -81 83
-137 100 -26 8 -49 12 -51 10 -7 -7 27 -67 67 -122 21 -27 61 -68 89 -89 57
-44 61 -60 40 -169 l-12 -57 -17 51 c-18 54 -59 103 -110 133 -30 18 -30 18
-30 -5 0 -64 48 -181 100 -248 l28 -36 -37 -79 -38 -80 -7 55 c-7 57 -39 121
-74 153 -20 19 -21 18 -28 -18 -10 -54 0 -172 21 -237 l18 -57 -52 -60 c-52
-60 -82 -80 -61 -42 17 34 11 132 -11 181 l-21 45 -20 -45 c-31 -72 -48 -149
-48 -220 0 -72 7 -64 -94 -120 l-59 -34 26 45 c30 52 42 113 32 166 l-7 38
-37 -42 c-46 -51 -96 -143 -111 -204 l-12 -46 -71 -16 c-40 -10 -76 -17 -81
-17 -4 0 8 18 28 41 20 22 41 52 47 66 16 42 27 103 20 103 -5 0 -39 -22 -77
-49 -66 -47 -106 -89 -133 -138 -8 -16 -21 -23 -40 -23 -22 0 -35 11 -66 56
-34 49 -160 154 -186 154 -7 0 4 -61 20 -103 6 -14 27 -44 47 -66 20 -23 32
-41 28 -41 -5 0 -41 7 -81 17 l-71 16 -12 46 c-15 61 -65 153 -111 204 l-37
42 -7 -38 c-10 -53 2 -114 32 -166 l26 -45 -59 34 c-101 56 -94 48 -94 120 0
71 -17 148 -48 220 l-20 45 -21 -45 c-22 -49 -28 -139 -11 -187 8 -22 -3 -14
-50 37 -42 45 -59 71 -56 85 2 11 11 47 20 80 16 60 21 185 7 219 -6 17 -10
15 -34 -14 -41 -48 -57 -85 -64 -143 l-7 -52 -37 80 -37 79 28 36 c50 64 100
187 100 247 0 24 0 24 -30 6 -51 -30 -92 -79 -110 -133 -15 -44 -18 -48 -24
-28 -3 13 -9 55 -12 93 l-6 70 52 39 c29 22 69 63 90 90 40 55 74 115 67 122
-2 2 -25 -2 -51 -10 -56 -17 -111 -57 -137 -100 l-19 -31 0 29 c0 16 5 57 12
92 l11 63 60 20 c73 25 139 67 192 120 l39 41 -62 0 c-71 0 -124 -19 -164 -57
-37 -35 -35 -23 10 67 l38 75 69 7 c39 4 89 12 114 18 44 11 141 56 141 66 0
3 -16 12 -35 20 -50 20 -143 18 -189 -5 l-37 -20 34 42 c23 28 62 55 121 85
61 31 108 65 163 117 l78 74 -41 1 c-103 1 -202 -55 -262 -148 -39 -61 -104
-144 -108 -139 -1 1 4 29 12 62 15 63 19 211 7 218 -5 3 -23 -15 -41 -38z"/>
<path d="M4624 3769 c-43 -12 -101 -79 -110 -125 -4 -24 -1 -55 9 -88 l17 -50
-119 -306 c-149 -382 -156 -403 -148 -423 9 -24 49 -20 69 6 16 23 102 236
211 522 l53 140 71 3 70 3 62 -158 c61 -153 113 -282 152 -372 11 -24 19 -52
19 -63 0 -27 49 -88 70 -88 9 0 24 8 32 18 15 16 10 31 -54 187 -38 94 -73
181 -79 195 -5 14 -37 94 -71 178 l-60 153 16 53 c23 73 14 120 -33 167 -33
34 -93 60 -131 58 -8 0 -29 -5 -46 -10z m96 -84 c55 -29 63 -84 18 -132 -47
-51 -148 -13 -148 54 0 47 41 90 88 92 7 1 26 -6 42 -14z"/>
<path d="M8601 3773 c-13 -3 -43 -24 -66 -48 -55 -54 -65 -98 -41 -169 l17
-51 -106 -270 c-58 -148 -119 -308 -136 -354 -28 -79 -28 -85 -13 -102 23 -26
39 -24 59 8 10 14 73 168 140 342 l123 316 70 3 69 3 133 -330 c73 -182 139
-336 146 -342 16 -14 60 -4 67 14 3 7 -58 169 -135 360 l-141 347 18 56 c11
36 15 67 10 91 -9 48 -68 107 -120 122 -41 11 -52 12 -94 4z m117 -109 c47
-54 9 -133 -66 -134 -45 0 -67 13 -82 49 -17 42 -5 78 33 102 40 25 83 19 115
-17z"/>
<path d="M3483 3758 c-11 -17 -16 -868 -6 -938 6 -42 13 -56 27 -58 39 -8 46
22 46 204 0 95 2 179 5 186 5 12 15 12 54 5 38 -8 59 -7 97 6 27 9 49 15 50
14 82 -112 266 -351 288 -374 16 -18 37 -33 47 -33 24 0 42 26 34 49 -3 11
-76 111 -161 222 -153 201 -154 203 -154 254 0 29 -3 65 -6 81 -5 26 8 43 145
187 83 87 151 164 151 171 0 16 -21 36 -38 36 -8 0 -84 -68 -168 -151 -150
-147 -155 -150 -186 -143 -42 11 -84 11 -125 0 l-33 -8 0 139 c0 143 -5 163
-41 163 -10 0 -21 -6 -26 -12z m216 -374 c23 -19 31 -34 31 -59 0 -47 -8 -64
-41 -80 -40 -21 -63 -19 -98 11 -49 41 -40 107 17 138 39 21 56 19 91 -10z"/>
<path d="M6678 3751 c-78 -25 -147 -71 -213 -143 -188 -203 -181 -502 15 -698
101 -101 220 -150 363 -150 81 1 134 13 215 53 176 85 286 264 284 462 -2 217
-133 397 -342 472 -84 29 -236 31 -322 4z m343 -99 c83 -40 159 -119 202 -209
30 -64 32 -75 32 -178 0 -103 -2 -114 -32 -177 -116 -245 -417 -324 -636 -168
-211 152 -237 461 -54 644 49 50 125 97 187 117 14 5 72 7 130 6 95 -3 111 -6
171 -35z"/>
<path d="M6748 3410 c-112 -59 -109 -239 5 -293 117 -56 241 21 241 148 0 126
-133 204 -246 145z m143 -89 c32 -33 36 -58 14 -100 -16 -33 -33 -41 -80 -41
-39 0 -85 46 -85 85 0 13 12 37 26 54 35 42 84 43 125 2z"/>
<path d="M7582 3758 c-6 -8 -11 -161 -14 -421 -3 -397 -4 -409 -23 -425 -86
-70 -68 -200 31 -232 49 -17 106 0 134 40 l21 30 137 1 c75 0 157 4 182 7 42
6 45 9 45 37 0 39 -16 43 -201 44 l-150 1 -23 31 c-12 16 -33 35 -47 41 l-24
11 0 404 c0 260 -4 411 -10 424 -12 22 -42 25 -58 7z m62 -924 c34 -34 9 -78
-41 -72 -23 2 -29 9 -31 33 -6 46 40 71 72 39z"/>
<path d="M5257 3747 c-14 -10 -17 -70 -21 -437 -6 -479 -3 -536 27 -546 44
-14 47 2 51 340 2 195 8 322 14 328 20 20 46 2 66 -47 11 -27 33 -70 48 -95
15 -25 51 -91 80 -146 51 -101 51 -102 35 -135 -38 -81 -34 -139 15 -195 39
-44 77 -64 122 -64 71 0 125 36 157 105 25 54 24 82 -7 143 l-26 52 106 189
c58 104 121 214 139 245 l34 57 7 -47 c3 -26 6 -192 6 -370 0 -177 3 -329 6
-338 10 -26 53 -20 64 10 6 15 10 206 10 472 0 394 -2 450 -16 470 -26 37 -64
26 -93 -27 -13 -24 -18 -40 -11 -36 8 5 5 -6 -7 -26 -12 -19 -87 -151 -167
-294 l-146 -260 -51 -5 -51 -6 -104 213 c-58 117 -109 215 -114 218 -5 3 -28
43 -50 88 -76 149 -92 168 -123 144z m478 -749 c29 -13 55 -55 55 -88 0 -32
-53 -80 -88 -80 -63 0 -108 70 -80 127 12 26 50 53 75 53 7 0 24 -5 38 -12z"/>
<path d="M1149 3670 c18 -4 37 -14 42 -22 14 -22 11 -1032 -3 -1046 -7 -7 -25
-12 -40 -12 -15 0 -28 -4 -28 -10 0 -6 50 -10 130 -10 80 0 130 4 130 10 0 6
-13 10 -29 10 -16 0 -34 6 -40 14 -8 9 -11 83 -9 245 l3 232 159 -186 c88
-102 182 -207 210 -232 71 -64 157 -105 233 -111 84 -6 118 9 40 18 -82 10
-150 60 -265 195 -98 114 -300 369 -304 382 -4 15 500 503 533 518 32 13 28
14 -76 13 -60 -1 -91 -3 -67 -5 23 -2 42 -7 42 -11 0 -7 -246 -252 -432 -432
l-78 -74 0 239 c0 132 4 246 9 253 5 8 24 18 42 22 22 5 -12 8 -101 8 -89 0
-123 -3 -101 -8z"/>
<path d="M3955 2519 c-170 -15 -358 -39 -414 -54 -69 -18 -86 -39 -56 -69 12
-12 22 -13 41 -5 63 23 289 49 579 65 44 2 90 7 103 9 24 6 30 33 10 53 -14
14 -108 14 -263 1z"/>
<path d="M6183 2515 c-99 -18 -194 -50 -286 -98 -89 -45 -115 -74 -97 -106 14
-27 46 -27 60 -1 13 23 129 80 224 109 95 29 96 29 85 -16 -29 -112 -115 -352
-136 -379 -51 -68 -14 -122 77 -111 204 24 470 273 470 439 0 89 -42 136 -146
163 -69 18 -153 18 -251 0z m231 -65 c22 -5 51 -17 65 -28 52 -38 35 -134 -38
-223 -24 -29 -36 -35 -56 -31 -28 5 -121 -19 -191 -48 -24 -11 -44 -16 -44
-12 0 4 21 70 45 147 25 76 45 154 45 172 l0 33 68 0 c37 0 85 -5 106 -10z
m-109 -381 c-70 -48 -198 -99 -212 -86 -7 8 66 49 141 78 84 33 113 37 71 8z"/>
<path d="M5528 2473 c-9 -10 -37 -56 -63 -101 -44 -77 -50 -83 -74 -79 -38 7
-87 -16 -112 -55 -12 -18 -35 -43 -50 -56 l-29 -24 0 41 c0 38 -19 71 -41 71
-16 0 -52 -20 -77 -43 l-22 -21 11 33 c10 27 9 35 -5 49 -23 23 -47 6 -66 -46
-16 -41 -77 -114 -114 -134 -12 -7 -22 -6 -29 1 -8 8 -5 11 12 11 13 0 38 15
57 34 43 43 48 103 11 133 -13 10 -22 24 -19 31 9 27 -20 42 -79 42 -58 0 -69
6 -48 27 16 16 7 57 -14 61 -23 5 -51 -20 -67 -59 -12 -27 -16 -29 -69 -29
-67 0 -84 -9 -79 -41 3 -21 9 -24 54 -27 l52 -3 -12 -38 c-6 -21 -26 -50 -43
-65 l-33 -28 0 46 c0 72 -45 84 -110 30 l-29 -25 11 31 c8 26 8 35 -5 47 -22
22 -43 10 -64 -34 -20 -42 -46 -50 -51 -17 -2 12 -14 32 -27 44 -30 28 -67 21
-105 -20 l-27 -29 -34 24 c-34 26 -83 33 -94 14 -5 -6 -11 -4 -19 6 -14 20
-56 17 -67 -5 -14 -28 -42 -178 -36 -194 13 -33 46 -17 83 42 20 31 45 65 55
75 18 17 20 17 48 -4 21 -16 32 -34 36 -63 8 -50 28 -82 54 -91 30 -9 78 21
103 65 30 51 43 51 43 -2 0 -38 3 -43 24 -46 18 -3 37 10 82 60 l58 63 1 -37
c0 -61 44 -86 94 -53 21 14 23 14 34 -9 15 -34 44 -37 101 -11 l50 23 15 -23
c23 -35 68 -41 116 -16 23 12 42 16 45 11 14 -23 49 -6 105 53 l60 62 0 -37
c0 -20 7 -44 16 -52 18 -19 55 -21 72 -4 9 9 16 5 32 -15 12 -15 30 -27 40
-27 26 0 76 44 116 104 19 28 34 49 34 46 0 -3 -9 -37 -20 -75 -31 -107 -25
-144 19 -130 14 4 25 32 45 108 15 56 45 162 67 235 31 105 37 137 28 148 -15
19 -33 18 -51 -3z m-694 -208 c-14 -14 -30 -39 -35 -55 -6 -16 -30 -43 -52
-60 -53 -39 -57 -27 -28 70 l22 70 59 0 59 0 -25 -25z m66 -39 c0 -2 -8 -10
-17 -17 -16 -13 -17 -12 -4 4 13 16 21 21 21 13z m449 -43 c-42 -62 -43 -63
-35 -28 8 30 42 75 58 75 5 0 -5 -21 -23 -47z m-1099 -47 c0 -2 -8 -10 -17
-17 -16 -13 -17 -12 -4 4 13 16 21 21 21 13z"/>
<path d="M7319 2440 c-42 -44 -89 -128 -109 -198 -9 -28 -30 -58 -66 -92 -54
-51 -68 -58 -79 -40 -3 6 3 10 14 10 11 0 36 15 55 34 28 26 36 41 36 70 0 50
-31 80 -73 72 -40 -8 -62 -29 -88 -83 -25 -52 -22 -122 6 -153 32 -35 71 -35
127 -1 49 31 50 31 66 12 27 -31 54 -33 105 -8 l47 24 15 -23 c33 -50 98 -33
137 36 13 22 29 40 36 40 15 0 15 -3 -29 -138 -33 -99 -34 -129 -7 -146 26
-16 42 6 73 107 l28 87 35 0 c86 0 170 73 180 155 10 93 -60 128 -133 64 l-35
-31 0 26 c0 27 -28 49 -48 37 -6 -3 -17 -24 -24 -46 -15 -46 -48 -61 -48 -22
0 13 -11 34 -24 46 -44 41 -99 12 -148 -77 -9 -17 -36 -45 -60 -62 l-43 -32
-3 38 c-3 28 1 40 15 47 43 23 140 134 158 181 17 43 17 51 4 75 -10 18 -24
27 -48 29 -27 3 -39 -3 -72 -38z m431 -260 c-11 -20 -66 -60 -83 -60 -13 0 11
36 50 77 29 30 38 35 41 21 2 -9 -2 -26 -8 -38z m-297 -26 c9 -9 -12 -46 -23
-39 -4 3 -6 14 -3 25 5 20 15 25 26 14z"/>
<path d="M3714 2408 c-6 -7 -20 -49 -32 -93 -26 -92 -49 -129 -83 -133 -51 -6
-108 -25 -113 -38 -6 -17 3 -43 15 -45 38 -6 77 -3 91 5 9 6 19 8 22 5 3 -2
-4 -40 -15 -83 -23 -91 -20 -109 18 -104 30 3 33 11 65 143 l14 60 89 10 c76
9 90 13 93 29 6 31 -25 47 -79 40 l-47 -6 4 68 c2 38 5 87 6 109 3 34 0 40
-18 43 -11 2 -25 -3 -30 -10z"/>
<path d="M6900 2233 l-63 -78 6 51 c11 95 -48 117 -66 26 -6 -32 -19 -51 -60
-87 -49 -43 -77 -56 -77 -36 0 5 11 12 24 15 30 7 86 70 86 97 0 23 -18 61
-34 71 -22 15 -55 7 -87 -19 -40 -34 -59 -79 -59 -142 0 -43 4 -53 31 -75 17
-14 37 -26 45 -26 25 0 78 26 98 49 l19 21 11 -22 c8 -16 20 -23 41 -23 26 0
41 14 113 103 86 108 100 144 56 150 -16 2 -37 -16 -84 -75z m-227 -18 c-3 -9
-8 -14 -10 -11 -3 3 -2 9 2 15 9 16 15 13 8 -4z"/>
<path d="M7927 2284 c-33 -18 -77 -103 -77 -149 0 -80 69 -123 139 -87 22 12
48 18 63 15 23 -4 31 2 68 61 45 71 70 92 87 75 18 -18 58 -6 61 18 6 40 -75
70 -117 44 -10 -6 -20 -3 -32 12 -24 30 -52 12 -60 -37 -9 -58 -107 -152 -132
-127 -8 8 -5 11 12 11 27 0 90 60 92 87 5 81 -38 113 -104 77z m43 -58 c0 -2
-8 -10 -17 -17 -16 -13 -17 -12 -4 4 13 16 21 21 21 13z"/>
</g>
</svg>
